<svg style="display: none" xmlns="http://www.w3.org/2000/svg">
<!-- ////////  select icons  \\\\\\\\\\\ -->
    <symbol id="down" viewBox="0 0 24 24">
        <g><path fill-rule="evenodd" clip-rule="evenodd" d="M6.15247 9.01168C6.43648 8.72135 6.89697 8.72135 7.18099 9.01168L12.4849 14.4335L17.7888 9.01168C18.0729 8.72135 18.5333 8.72135 18.8174 9.01168C19.1014 9.30201 19.1014 9.77273 18.8174 10.0631L12.9992 16.0105C12.7152 16.3009 12.2547 16.3009 11.9706 16.0105L6.15247 10.0631C5.86845 9.77273 5.86845 9.30201 6.15247 9.01168Z"/></g>
    </symbol>
    <symbol id="uzb" width="14" height="14" viewBox="0 0 14 14" fill="none">
        <g clip-path="url(#clip0_127_4875)">
            <path d="M14 8.55566H0V11.6668H14V8.55566Z" fill="#1EB53A"/>
            <path d="M14 2.33325H0V5.44436H14V2.33325Z" fill="#0099B5"/>
            <path d="M17 5H-4V9H17V5Z" fill="#CE1126"/>
            <path d="M14 5.44434H0V8.55545H14V5.44434Z" fill="white"/>
        </g>
        <defs>
            <clipPath id="clip0_127_4875">
                <rect width="14" height="14" fill="white"/>
            </clipPath>
        </defs>
    </symbol>
    <symbol id="ru" width="14" height="14" viewBox="0 0 14 14" fill="none">
        <path d="M14 2.33325H0V6.99992H14V2.33325Z" fill="white"/>
        <path d="M14 7H0V11.6667H14V7Z" fill="#D52B1E"/>
        <path d="M14 5.44434H0V8.55545H14V5.44434Z" fill="#0039A6"/>
    </symbol>

<!--     ////////////// social icons \\\\\\\\\\\\\\\\\ -->

    <symbol id="facebook" width="24" height="24" viewBox="0 0 24 24">
        <path fill-rule="evenodd" clip-rule="evenodd" d="M12 0C5.37258 0 0 5.37258 0 12C0 18.6274 5.37258 24 12 24C18.6274 24 24 18.6274 24 12C24 5.37258 18.6274 0 12 0ZM13.2508 12.5271V19.0557H10.5495V12.5274H9.2V10.2776H10.5495V8.92678C10.5495 7.0914 11.3116 6 13.4766 6H15.279V8.25006H14.1524C13.3096 8.25006 13.2538 8.56447 13.2538 9.15125L13.2508 10.2773H15.2918L15.053 12.5271H13.2508Z"/>
    </symbol>

    <symbol id="instagram" width="24" height="24" viewBox="0 0 24 24">
        <path fill-rule="evenodd" clip-rule="evenodd" d="M12 0C5.37258 0 0 5.37258 0 12C0 18.6274 5.37258 24 12 24C18.6274 24 24 18.6274 24 12C24 5.37258 18.6274 0 12 0ZM9.36164 5.63867C10.0443 5.6076 10.2624 5.6 12.0006 5.6H11.9986C13.7373 5.6 13.9546 5.6076 14.6373 5.63867C15.3186 5.66987 15.784 5.77774 16.192 5.936C16.6133 6.09934 16.9693 6.31801 17.3253 6.67401C17.6813 7.02975 17.9 7.38682 18.064 7.80776C18.2213 8.21469 18.3293 8.67976 18.3613 9.3611C18.392 10.0438 18.4 10.2619 18.4 12.0001C18.4 13.7382 18.392 13.9558 18.3613 14.6385C18.3293 15.3196 18.2213 15.7848 18.064 16.1918C17.9 16.6126 17.6813 16.9697 17.3253 17.3255C16.9697 17.6815 16.6132 17.9007 16.1924 18.0641C15.7852 18.2224 15.3196 18.3303 14.6382 18.3615C13.9556 18.3925 13.7381 18.4001 11.9998 18.4001C10.2618 18.4001 10.0438 18.3925 9.36111 18.3615C8.6799 18.3303 8.21469 18.2224 7.80749 18.0641C7.38682 17.9007 7.02975 17.6815 6.67414 17.3255C6.31827 16.9697 6.09961 16.6126 5.936 16.1917C5.77787 15.7848 5.67 15.3197 5.63867 14.6384C5.60773 13.9557 5.6 13.7382 5.6 12.0001C5.6 10.2619 5.608 10.0436 5.63853 9.36097C5.6692 8.6799 5.7772 8.21469 5.93587 7.80762C6.09987 7.38682 6.31854 7.02975 6.67454 6.67401C7.03028 6.31814 7.38735 6.09947 7.80829 5.936C8.21523 5.77774 8.6803 5.66987 9.36164 5.63867Z"/>
        <path fill-rule="evenodd" clip-rule="evenodd" d="M11.4265 6.75331C11.538 6.75313 11.6579 6.75319 11.7873 6.75325L12.0006 6.75331C13.7094 6.75331 13.912 6.75944 14.5868 6.79011C15.2108 6.81864 15.5495 6.92291 15.7751 7.01051C16.0737 7.12651 16.2867 7.26518 16.5105 7.48918C16.7345 7.71319 16.8732 7.92652 16.9895 8.22519C17.0771 8.45053 17.1815 8.7892 17.2099 9.4132C17.2405 10.0879 17.2472 10.2905 17.2472 11.9986C17.2472 13.7066 17.2405 13.9093 17.2099 14.5839C17.1813 15.2079 17.0771 15.5466 16.9895 15.7719C16.8735 16.0706 16.7345 16.2833 16.5105 16.5071C16.2865 16.7311 16.0739 16.8698 15.7751 16.9858C15.5497 17.0738 15.2108 17.1778 14.5868 17.2064C13.9121 17.237 13.7094 17.2437 12.0006 17.2437C10.2917 17.2437 10.0891 17.237 9.41447 17.2064C8.79046 17.1776 8.45179 17.0733 8.22605 16.9857C7.92738 16.8697 7.71405 16.731 7.49005 16.507C7.26604 16.283 7.12738 16.0702 7.01111 15.7714C6.92351 15.5461 6.81911 15.2074 6.79071 14.5834C6.76004 13.9087 6.75391 13.706 6.75391 11.997C6.75391 10.2879 6.76004 10.0863 6.79071 9.4116C6.81924 8.7876 6.92351 8.44893 7.01111 8.22332C7.12711 7.92465 7.26604 7.71132 7.49005 7.48732C7.71405 7.26331 7.92738 7.12465 8.22605 7.00838C8.45166 6.92038 8.79046 6.81638 9.41447 6.78771C10.0049 6.76104 10.2337 6.75304 11.4265 6.75171V6.75331ZM15.4169 7.81599C14.9929 7.81599 14.6489 8.15959 14.6489 8.58373C14.6489 9.00773 14.9929 9.35174 15.4169 9.35174C15.8409 9.35174 16.1849 9.00773 16.1849 8.58373C16.1849 8.15972 15.8409 7.81572 15.4169 7.81572V7.81599ZM8.71393 12C8.71393 10.185 10.1855 8.7134 12.0005 8.71333C13.8156 8.71333 15.2868 10.1849 15.2868 12C15.2868 13.8151 13.8157 15.2861 12.0006 15.2861C10.1855 15.2861 8.71393 13.8151 8.71393 12Z"/>
        <path d="M12.0005 9.8667C13.1787 9.8667 14.1339 10.8218 14.1339 12.0001C14.1339 13.1782 13.1787 14.1334 12.0005 14.1334C10.8223 14.1334 9.86719 13.1782 9.86719 12.0001C9.86719 10.8218 10.8223 9.8667 12.0005 9.8667Z"/>
    </symbol>

    <symbol id="telegram" width="24" height="24" viewBox="0 0 24 24">
        <path fill-rule="evenodd" clip-rule="evenodd" d="M0 12C0 18.6274 5.37258 24 12 24C18.6274 24 24 18.6274 24 12C24 5.37258 18.6274 0 12 0C5.37258 0 0 5.37258 0 12ZM9.8 17.5L10.0042 14.4411L10.004 14.441L15.5685 9.4195C15.8127 9.20276 15.5151 9.09707 15.1909 9.29366L8.32364 13.6262L5.35734 12.7003C4.71675 12.5042 4.71215 12.064 5.50116 11.7475L17.0602 7.29043C17.5881 7.05075 18.0976 7.41723 17.8961 8.22525L15.9276 17.5015C15.7901 18.1607 15.3919 18.3184 14.84 18.0139L11.8414 15.7985L10.4 17.2C10.3955 17.2044 10.3909 17.2088 10.3864 17.2132C10.2252 17.3701 10.0919 17.5 9.8 17.5Z"/>
    </symbol>

    <symbol id="youtube" width="24" height="24" viewBox="0 0 24 24">
        <path fill-rule="evenodd" clip-rule="evenodd" d="M12 0C5.37258 0 0 5.37258 0 12C0 18.6274 5.37258 24 12 24C18.6274 24 24 18.6274 24 12C24 5.37258 18.6274 0 12 0ZM17.0008 7.87466C17.5516 8.0258 17.9853 8.47111 18.1325 9.03661C18.4 10.0615 18.4 12.2 18.4 12.2C18.4 12.2 18.4 14.3384 18.1325 15.3634C17.9853 15.9289 17.5516 16.3742 17.0008 16.5254C16.0027 16.8 12 16.8 12 16.8C12 16.8 7.99731 16.8 6.99913 16.5254C6.44836 16.3742 6.01462 15.9289 5.86742 15.3634C5.6 14.3384 5.6 12.2 5.6 12.2C5.6 12.2 5.6 10.0615 5.86742 9.03661C6.01462 8.47111 6.44836 8.0258 6.99913 7.87466C7.99731 7.6 12 7.6 12 7.6C12 7.6 16.0027 7.6 17.0008 7.87466Z"/>
        <path d="M10.7998 14.3999V10.3999L13.9998 12.4L10.7998 14.3999Z"/>
    </symbol>

    <symbol id="search" width="18" height="18" viewBox="0 0 18 18">
        <path d="M13.5233 12.4628L16.7355 15.6743L15.6743 16.7355L12.4628 13.5233C11.2678 14.4812 9.7815 15.0022 8.25 15C4.524 15 1.5 11.976 1.5 8.25C1.5 4.524 4.524 1.5 8.25 1.5C11.976 1.5 15 4.524 15 8.25C15.0022 9.7815 14.4812 11.2678 13.5233 12.4628ZM12.0188 11.9063C12.9706 10.9274 13.5022 9.61532 13.5 8.25C13.5 5.349 11.1503 3 8.25 3C5.349 3 3 5.349 3 8.25C3 11.1503 5.349 13.5 8.25 13.5C9.61532 13.5022 10.9274 12.9706 11.9063 12.0188L12.0188 11.9063Z"/>
    </symbol>

    <symbol id="close" width="24" height="24" viewBox="0 0 24 24" fill="none">
        <path d="M18 6L6 18" stroke-width="2" stroke-linecap="round" stroke-linejoin="round"/>
        <path d="M6 6L18 18" stroke-width="2" stroke-linecap="round" stroke-linejoin="round"/>
    </symbol>

<!--    /////////  footer icons \\\\\\\\\\\\\\ -->

    <symbol id="phone" width="24" height="24" viewBox="0 0 24 24" fill="none">
        <path d="M20.01 15.38C18.78 15.38 17.59 15.18 16.48 14.82C16.13 14.7 15.74 14.79 15.47 15.06L13.9 17.03C11.07 15.68 8.42 13.13 7.01 10.2L8.96 8.54C9.23 8.26 9.31 7.87 9.2 7.52C8.83 6.41 8.64 5.22 8.64 3.99C8.64 3.45 8.19 3 7.65 3H4.19C3.65 3 3 3.24 3 3.99C3 13.28 10.73 21 20.01 21C20.72 21 21 20.37 21 19.82V16.37C21 15.83 20.55 15.38 20.01 15.38Z" fill="#FF0000"/>
    </symbol>

    <symbol id="location" width="24" height="24" viewBox="0 0 24 24" fill="none">
        <path d="M12 2C8.13 2 5 5.13 5 9C5 14.25 12 22 12 22C12 22 19 14.25 19 9C19 5.13 15.87 2 12 2ZM12 11.5C10.62 11.5 9.5 10.38 9.5 9C9.5 7.62 10.62 6.5 12 6.5C13.38 6.5 14.5 7.62 14.5 9C14.5 10.38 13.38 11.5 12 11.5Z" fill="#FF0000"/>
    </symbol>

<!--    /////////////   breadcrumbs icons  \\\\\\\\\\\\\\\\\\\\ -->

    <symbol id="homeIcons" width="18" height="18" viewBox="0 0 18 18" fill="none">
        <path d="M7.49995 14.25V10.5H10.5V14.25C10.5 14.6625 10.8375 15 11.25 15H13.5C13.9125 15 14.25 14.6625 14.25 14.25V9.00004H15.525C15.87 9.00004 16.035 8.57254 15.7725 8.34754L9.50245 2.70004C9.21745 2.44504 8.78245 2.44504 8.49745 2.70004L2.22745 8.34754C1.97245 8.57254 2.12995 9.00004 2.47495 9.00004H3.74995V14.25C3.74995 14.6625 4.08745 15 4.49995 15H6.74995C7.16245 15 7.49995 14.6625 7.49995 14.25Z" fill="#828282"/>
    </symbol>

    <symbol id="right" width="18" height="18" viewBox="0 0 18 18" fill="none">
        <path d="M9.879 8.99995L6.1665 5.28745L7.227 4.22695L12 8.99995L7.227 13.7729L6.1665 12.7124L9.879 8.99995Z" fill="#828282"/>
    </symbol>

    <symbol id="maps" width="24" height="24" viewBox="0 0 24 24" fill="none">
        <path d="M16.6284 7.62601C16.5188 7.51619 16.3536 7.48549 16.2116 7.54708L6.73094 11.6817C6.58571 11.745 6.49549 11.8925 6.50566 12.0509C6.51583 12.209 6.62376 12.344 6.77596 12.3885L10.7149 13.5393L11.8658 17.4783C11.9102 17.6309 12.0453 17.739 12.2035 17.749C12.2116 17.7497 12.2195 17.7497 12.2276 17.7497C12.3766 17.7497 12.5126 17.6617 12.5727 17.5239L16.7075 8.04303C16.7693 7.90101 16.738 7.73544 16.6284 7.62601Z" fill="#FF0000"/>
    </symbol>

<!--    /////////////// for contact \\\\\\\\\\\\\ -->

    <symbol id="mail" width="31" height="31" viewBox="0 0 31 31" fill="none">
        <path d="M27.9277 8.07104C27.9277 6.69604 26.8027 5.57104 25.4277 5.57104H5.42773C4.05273 5.57104 2.92773 6.69604 2.92773 8.07104V23.071C2.92773 24.446 4.05273 25.571 5.42773 25.571H25.4277C26.8027 25.571 27.9277 24.446 27.9277 23.071V8.07104ZM25.4277 8.07104L15.4277 14.3085L5.42773 8.07104H25.4277ZM25.4277 23.071H5.42773V10.571L15.4277 16.821L25.4277 10.571V23.071Z" fill="white"/>
    </symbol>

    <symbol id="phones" width="31" height="31" viewBox="0 0 31 31" fill="none">
        <path d="M19.1787 15.2859H21.6787C21.6787 11.8359 18.8787 9.03589 15.4287 9.03589V11.5359C17.5037 11.5359 19.1787 13.2109 19.1787 15.2859ZM24.1787 15.2859H26.6787C26.6787 9.07339 21.6412 4.03589 15.4287 4.03589V6.53589C20.2662 6.53589 24.1787 10.4484 24.1787 15.2859ZM25.4287 19.6609C23.8662 19.6609 22.3662 19.4109 20.9662 18.9484C20.8412 18.9109 20.7037 18.8859 20.5787 18.8859C20.2537 18.8859 19.9412 19.0109 19.6912 19.2484L16.9412 21.9984C13.4037 20.1984 10.5037 17.3109 8.70371 13.7609L11.4537 10.9984C11.8037 10.6734 11.9037 10.1859 11.7662 9.74839C11.3037 8.34839 11.0537 6.84839 11.0537 5.28589C11.0537 4.59839 10.4912 4.03589 9.80371 4.03589H5.42871C4.74121 4.03589 4.17871 4.59839 4.17871 5.28589C4.17871 17.0234 13.6912 26.5359 25.4287 26.5359C26.1162 26.5359 26.6787 25.9734 26.6787 25.2859V20.9109C26.6787 20.2234 26.1162 19.6609 25.4287 19.6609ZM6.71621 6.53589H8.59121C8.67871 7.63589 8.86621 8.72339 9.15371 9.76089L7.65371 11.2734C7.15371 9.76089 6.82871 8.18589 6.71621 6.53589ZM24.1787 23.9984C22.5287 23.8859 20.9287 23.5609 19.4287 23.0484L20.9287 21.5484C21.9912 21.8484 23.0787 22.0359 24.1787 22.1109V23.9984Z" fill="white"/>
    </symbol>

    <symbol id="address" width="31" height="31" viewBox="0 0 31 31" fill="none">
        <path d="M15.4277 15.571C14.0527 15.571 12.9277 14.446 12.9277 13.071C12.9277 11.696 14.0527 10.571 15.4277 10.571C16.8027 10.571 17.9277 11.696 17.9277 13.071C17.9277 14.446 16.8027 15.571 15.4277 15.571ZM22.9277 13.321C22.9277 8.78354 19.6152 5.57104 15.4277 5.57104C11.2402 5.57104 7.92773 8.78354 7.92773 13.321C7.92773 16.246 10.3652 20.121 15.4277 24.746C20.4902 20.121 22.9277 16.246 22.9277 13.321ZM15.4277 3.07104C20.6777 3.07104 25.4277 7.09604 25.4277 13.321C25.4277 17.471 22.0902 22.3835 15.4277 28.071C8.76523 22.3835 5.42773 17.471 5.42773 13.321C5.42773 7.09604 10.1777 3.07104 15.4277 3.07104Z" fill="white"/>
    </symbol>
<!-- /////////////// tabBar icons \\\\\\\\\\\\\\\ -->

    <symbol id="main" width="22" height="22" viewBox="0 0 22 22">
        <path d="M8.60606 19.0109V13.2319H13.3886V19.0109C13.3886 19.6466 13.9267 20.1668 14.5843 20.1668H18.1712C18.8288 20.1668 19.3668 19.6466 19.3668 19.0109V10.9203H21.3994C21.9494 10.9203 22.2125 10.2615 21.794 9.91472L11.7984 1.21148C11.3441 0.818504 10.6506 0.818504 10.1963 1.21148L0.200691 9.91472C-0.205827 10.2615 0.0452573 10.9203 0.595253 10.9203H2.62785V19.0109C2.62785 19.6466 3.16588 20.1668 3.82349 20.1668H7.41042C8.06802 20.1668 8.60606 19.6466 8.60606 19.0109Z"/>
    </symbol>

    <symbol id="shina" width="22" height="22" viewBox="0 0 22 22">
        <path d="M10.0364 0.259563C7.99652 0.440843 6.0284 1.2247 4.34277 2.5227C3.88341 2.87668 2.87625 3.88406 2.52205 4.34342C0.865895 6.48842 0.0609162 9.09696 0.246376 11.6888C0.402355 13.8721 1.08919 15.7304 2.39995 17.4922C3.10791 18.4489 4.32165 19.5529 5.37962 20.2019C7.25512 21.3525 9.53498 21.9131 11.6844 21.7571C13.2142 21.6475 14.3899 21.3356 15.7427 20.674C17.8793 19.633 19.6283 17.884 20.6736 15.7432C21.3309 14.3946 21.647 13.2145 21.7566 11.689C21.8576 10.2731 21.6301 8.642 21.1371 7.31034C20.9433 6.78344 20.4291 5.72568 20.1636 5.31274C19.5441 4.33924 18.4821 3.15498 17.6602 2.5227C15.4349 0.807363 12.7672 0.0193228 10.0364 0.259563ZM11.7222 3.5424C13.9853 3.77428 15.9829 4.97526 17.2431 6.86748C18.714 9.08002 18.8951 11.8995 17.7236 14.3101C16.9945 15.8147 15.7385 17.0537 14.2256 17.77C11.8487 18.8911 9.04614 18.6929 6.86726 17.2431C6.02026 16.6784 5.32485 15.9871 4.76011 15.1401C3.09955 12.6537 3.09537 9.34952 4.75593 6.86726C6.31088 4.54538 8.98696 3.2685 11.7222 3.5424Z"/>
        <path d="M10.1585 4.13652C7.78164 4.4399 5.74598 5.88552 4.7177 7.9885C3.65576 10.1674 3.81153 12.7128 5.13064 14.7526C6.84598 17.395 10.1794 18.5498 13.2222 17.551C13.7364 17.3867 14.4527 17.0369 14.8953 16.7377C18.0563 14.601 18.9286 10.4287 16.872 7.25106C15.7509 5.519 13.9262 4.39788 11.8021 4.13652C11.3932 4.08174 10.5587 4.08592 10.1585 4.13652ZM12.8936 5.63274C13.7533 5.9194 14.4866 6.37876 15.123 7.03194C15.3169 7.22994 15.4896 7.41958 15.5107 7.46182C15.5402 7.52078 15.2957 7.65982 13.8376 8.4142C12.8936 8.89886 12.1139 9.29926 12.0969 9.30762C12.0844 9.3118 12.0422 9.29508 12.0001 9.26538C11.9412 9.21896 11.9201 8.98312 11.8442 7.41936C11.7977 6.4331 11.7599 5.56916 11.7599 5.49766V5.36698L12.1097 5.42594C12.2993 5.45982 12.6533 5.55266 12.8936 5.63274ZM10.2428 5.51042C10.2428 5.57774 10.2049 6.40384 10.1585 7.35622C10.1121 8.30442 10.0743 9.12634 10.0743 9.17254C10.0743 9.22732 10.0406 9.27374 9.99 9.28628C9.93522 9.29904 9.33682 9.01238 8.18622 8.42234C7.2422 7.93768 6.46252 7.5331 6.45416 7.52474C6.4205 7.4869 7.26332 6.66916 7.58782 6.42474C8.28302 5.90246 9.47982 5.41362 10.1079 5.40086C10.23 5.39668 10.2428 5.40922 10.2428 5.51042ZM8.5358 10.61C8.89814 10.8419 8.99934 10.9262 8.99934 11.0018C8.99934 11.0777 8.7085 11.2841 7.35572 12.1566C6.31908 12.8267 5.69956 13.2018 5.67844 13.1765C5.6615 13.1512 5.58582 12.9321 5.50574 12.6877C5.10952 11.474 5.14758 10.2433 5.61112 8.99588L5.69538 8.77258L6.88382 9.54368C7.537 9.96498 8.28302 10.4455 8.5358 10.61ZM16.4589 9.16858C16.7414 9.91042 16.8382 10.9092 16.7158 11.7437C16.6569 12.1608 16.4083 13.0544 16.324 13.1765C16.3029 13.2018 15.6876 12.8309 14.6467 12.1566C13.3023 11.2885 13.0031 11.0777 13.0031 11.0018C13.0031 10.9259 13.2981 10.7238 14.6467 9.864C15.5529 9.2865 16.3031 8.83154 16.3198 8.84408C16.3368 8.86102 16.3999 9.00842 16.4589 9.16858ZM11.4438 9.9861C11.8653 10.1757 12.0969 10.5381 12.0969 10.9977C12.0928 11.6425 11.6418 12.0977 11.0011 12.0977C10.3605 12.0977 9.9053 11.6425 9.9053 11.0018C9.9053 10.5508 10.1119 10.2096 10.5037 10.0156C10.778 9.88072 11.1826 9.86818 11.4438 9.9861ZM10.0025 12.7381C10.0615 12.7845 10.0826 13.0247 10.1585 14.6008C10.2049 15.5954 10.2428 16.4636 10.2428 16.5267V16.6404L9.91828 16.5815C8.67506 16.3582 7.50334 15.705 6.71948 14.803L6.4414 14.4869L6.62268 14.3898C8.79738 13.2562 9.8888 12.6956 9.90992 12.6914C9.92246 12.6875 9.96448 12.713 10.0025 12.7381ZM13.8376 13.5895L15.5485 14.4704L15.4559 14.601C15.1398 15.0562 14.2758 15.7475 13.6015 16.0845C13.0704 16.3542 11.8695 16.6913 11.7766 16.5986C11.7641 16.5817 11.7936 15.7136 11.8439 14.6642C11.9324 12.7592 11.941 12.6666 12.08 12.7002C12.1055 12.7044 12.8977 13.1048 13.8376 13.5895Z"/>
    </symbol>

    <symbol id="diska" width="22" height="22" viewBox="0 0 22 22">
        <path d="M9.2268 0.326039C6.86158 0.750419 4.87894 1.79388 3.24412 3.4914C1.66496 5.12622 0.711923 7.00436 0.329343 9.25122C0.197123 10.0166 0.183263 11.693 0.294583 12.5C0.948423 17.2372 4.76058 21.0494 9.49806 21.7034C10.1937 21.8007 11.8076 21.8007 12.5033 21.7034C16.2668 21.1816 19.5712 18.6146 20.9972 15.1017C21.3312 14.2668 21.5954 13.3208 21.7067 12.5C21.804 11.8043 21.804 10.1904 21.7067 9.49476C21.1851 5.71054 18.5832 2.38524 15.0493 0.980098C14.2424 0.653178 13.2964 0.402818 12.5033 0.291498C11.752 0.186998 9.90154 0.207899 9.2268 0.326039ZM12.9345 2.05128L13.4422 2.17646L12.6771 3.65112C12.2527 4.46512 11.7867 5.36932 11.6336 5.66852C11.2928 6.34326 11.2372 6.40596 11.0007 6.40596C10.778 6.40596 10.6806 6.30168 10.3816 5.71032C10.2564 5.45996 9.79726 4.58326 9.35902 3.75562C8.92078 2.9348 8.56592 2.23916 8.56592 2.21122C8.56592 2.17646 9.185 2.03038 9.74842 1.9261C9.84588 1.91224 10.4859 1.9052 11.1745 1.91224C12.0718 1.9261 12.566 1.9679 12.9345 2.05128ZM8.6702 4.47216C9.49102 6.53818 9.62324 7.01822 9.47716 7.39398C9.43536 7.5053 9.17114 7.7627 8.83718 8.00624C8.1972 8.47242 7.91208 8.5349 7.45294 8.29136C7.16078 8.13142 3.84252 5.4252 3.84252 5.33478C3.82866 5.2096 5.11544 3.97122 5.665 3.57478C6.20774 3.18516 7.59198 2.4409 7.77282 2.4409C7.82144 2.4409 8.21106 3.32442 8.6702 4.47216ZM15.0423 2.80258C15.4458 3.00432 16.0233 3.35214 16.3363 3.57478C16.8788 3.97122 18.1658 5.2096 18.1658 5.34182C18.1658 5.43224 14.945 8.08258 14.604 8.26364C14.1449 8.514 13.8805 8.47924 13.3241 8.0828C12.2459 7.32446 12.2459 7.31764 13.2266 4.8411C13.6162 3.84626 13.9847 2.90026 14.0406 2.73328C14.0963 2.57334 14.1797 2.44112 14.2285 2.44112C14.2771 2.4409 14.6458 2.60788 15.0423 2.80258ZM4.94142 7.67228C5.86674 8.62532 6.47878 9.3071 6.47878 9.38366C6.47878 9.46022 6.42312 9.59244 6.3536 9.67582C6.24932 9.80804 5.95716 9.87756 4.0788 10.2045C2.88926 10.406 1.9085 10.58 1.89464 10.58C1.88078 10.58 1.8876 10.3297 1.91554 10.0305C1.9712 9.36254 2.2077 8.38178 2.5069 7.62344C2.75726 6.97642 3.26524 6.03746 3.34158 6.07222C3.37634 6.08608 4.09288 6.80262 4.94142 7.67228ZM19.0771 6.71924C19.4735 7.4635 19.8563 8.5767 20.0092 9.42524C20.0996 9.96094 20.1483 10.58 20.0996 10.58C20.0858 10.58 19.1118 10.406 17.9223 10.2045C16.0371 9.87756 15.7588 9.80804 15.6475 9.67582C15.578 9.59222 15.5223 9.46022 15.5223 9.3907C15.5223 9.24462 18.5764 6.05154 18.6806 6.0863C18.7154 6.09312 18.8962 6.37824 19.0771 6.71924ZM11.2301 8.50696C11.4528 8.61828 11.55 8.77822 11.557 9.00086C11.557 9.2653 11.2787 9.53656 11.0004 9.53656C10.5831 9.53656 10.2839 8.99404 10.5343 8.6878C10.7294 8.44426 10.9868 8.37474 11.2301 8.50696ZM9.21976 10.2392C9.3588 10.3506 9.4006 10.441 9.4006 10.6498C9.4006 11.1366 8.89966 11.3663 8.52412 11.0462C8.28058 10.8306 8.26672 10.5105 8.4964 10.2672C8.69814 10.0514 8.9694 10.0443 9.21976 10.2392ZM11.3485 10.2043C12.1136 10.5103 12.0789 11.6233 11.2928 11.9016C10.2214 12.2703 9.58848 10.6982 10.6181 10.2249C10.9589 10.0652 11.0007 10.0652 11.3485 10.2043ZM13.5049 10.267C13.7276 10.5035 13.7137 10.8442 13.4702 11.046C13.2407 11.2477 13.0181 11.2477 12.7813 11.0598C12.6423 10.9485 12.6005 10.8581 12.6005 10.6493C12.6007 10.1556 13.1712 9.9121 13.5049 10.267ZM6.7155 11.213C7.10512 11.3172 7.26506 11.5399 7.4877 12.2564C7.7242 13.0216 7.67558 13.2928 7.2512 13.6547C6.9729 13.8912 3.57808 16.0618 3.4529 16.0827C3.35544 16.0965 2.75022 15.0113 2.5069 14.3713C2.2077 13.6061 1.9712 12.6322 1.91554 11.9643C1.88782 11.6651 1.88078 11.4147 1.89464 11.4077C1.97802 11.3868 5.60934 11.1573 5.99192 11.1434C6.2425 11.1434 6.56238 11.1714 6.7155 11.213ZM17.8528 11.2409C18.9242 11.3036 19.877 11.3731 19.9676 11.387C20.1276 11.4217 20.1346 11.4288 20.0858 11.9713C20.0301 12.6601 19.7798 13.6688 19.4735 14.4269C19.2161 15.0669 18.6595 16.0756 18.5691 16.0756C18.416 16.0756 15.0352 13.8565 14.7431 13.5714C14.3396 13.1749 14.3187 12.98 14.59 12.1453C14.7917 11.5262 14.9587 11.3036 15.2717 11.2132C15.585 11.1225 15.7172 11.1225 17.8528 11.2409ZM10.2007 12.6322C10.4929 12.9175 10.4095 13.3417 10.0269 13.5018C9.6514 13.655 9.26178 13.3696 9.26178 12.9384C9.26178 12.7228 9.5678 12.4584 9.81838 12.4584C9.95016 12.4582 10.0962 12.5209 10.2007 12.6322ZM12.7886 12.6113C13.1155 12.9173 12.879 13.5714 12.4408 13.5714C12.2181 13.5714 11.933 13.3419 11.8774 13.1193C11.8287 12.9314 11.9816 12.5627 12.1279 12.507C12.3433 12.4166 12.6355 12.4652 12.7886 12.6113ZM8.20402 14.9626C8.28762 15.046 8.35714 15.1435 8.35714 15.1921C8.36418 15.3661 7.78668 19.3173 7.74488 19.4357C7.70308 19.547 7.6197 19.5191 6.95882 19.1921C6.01282 18.7121 5.26834 18.1764 4.49614 17.3974L3.87706 16.7783L5.8597 15.8044C6.94496 15.2616 7.88414 14.8234 7.94662 14.8234C8.0025 14.8234 8.12064 14.8861 8.20402 14.9626ZM16.1275 15.7973L18.124 16.7713L17.505 17.3974C17.1571 17.7452 16.6285 18.2043 16.3293 18.427C15.7102 18.8652 14.3398 19.5888 14.2701 19.5052C14.2215 19.4495 13.644 15.4704 13.644 15.2269C13.644 15.0878 13.9082 14.8234 14.0404 14.8234C14.0892 14.8234 15.0284 15.2616 16.1275 15.7973ZM11.9051 15.1573C12.0582 15.2339 12.1972 15.387 12.2947 15.5888C12.4199 15.8462 13.4356 19.5611 13.4356 19.7626C13.4356 19.7974 13.1921 19.881 12.8999 19.9505C12.1277 20.1313 9.87382 20.1313 9.10866 19.9505C8.7747 19.8739 8.56614 19.7905 8.56614 19.7349C8.56614 19.4843 9.63754 15.6721 9.76272 15.4636C9.9715 15.1296 10.2287 15.0392 11.0009 15.0322C11.4946 15.0322 11.724 15.0601 11.9051 15.1573Z"/>
    </symbol>

    <symbol id="akkTor" width="22" height="22" viewBox="0 0 22 22">
        <rect y="4.58325" width="22" height="2.29167" rx="0.5"/>
        <rect x="2.75" y="1.83325" width="2.75" height="2.75"/>
        <rect x="16.5" y="1.83325" width="2.75" height="2.75"/>
        <path d="M0.916504 19.75C0.916504 19.4739 1.14036 19.25 1.4165 19.25H20.5832C20.8593 19.25 21.0832 19.4739 21.0832 19.75V21.0833H0.916504V19.75Z"/>
        <rect x="1.8335" y="7.33325" width="18.3333" height="11.4583"/>
    </symbol>

    <symbol id="chat" width="22" height="22" viewBox="0 0 22 22">
        <path d="M19.0665 0.916748H2.93317C1.824 0.916748 0.926587 1.82425 0.926587 2.93341L0.916504 21.0834L4.94984 17.0501H19.0665C20.1757 17.0501 21.0832 16.1426 21.0832 15.0334V2.93341C21.0832 1.82425 20.1757 0.916748 19.0665 0.916748ZM5.95817 7.97508H16.0415C16.5961 7.97508 17.0498 8.42883 17.0498 8.98341C17.0498 9.538 16.5961 9.99175 16.0415 9.99175H5.95817C5.40359 9.99175 4.94984 9.538 4.94984 8.98341C4.94984 8.42883 5.40359 7.97508 5.95817 7.97508ZM12.0082 13.0167H5.95817C5.40359 13.0167 4.94984 12.563 4.94984 12.0084C4.94984 11.4538 5.40359 11.0001 5.95817 11.0001H12.0082C12.5628 11.0001 13.0165 11.4538 13.0165 12.0084C13.0165 12.563 12.5628 13.0167 12.0082 13.0167ZM16.0415 6.96675H5.95817C5.40359 6.96675 4.94984 6.513 4.94984 5.95841C4.94984 5.40383 5.40359 4.95008 5.95817 4.95008H16.0415C16.5961 4.95008 17.0498 5.40383 17.0498 5.95841C17.0498 6.513 16.5961 6.96675 16.0415 6.96675Z"/>
    </symbol>


</svg>
